# 3ds Max Wavefront OBJ Exporter v0.97b - (c)2007 guruware
# File Created: 17.11.2014 18:32:08

mtllib avocado.mtl

#
# object Sphere001
#

v  0.0000 0.5755 7.4377
v  -0.0000 10.1822 5.9820
v  -2.7294 8.5344 5.1499
v  -5.5021 2.3633 5.9820
v  -5.5021 -1.7878 5.9820
v  -3.4005 -4.6804 5.9820
v  0.0000 -5.4291 5.9820
v  3.4005 -4.6804 5.9820
v  5.5021 -1.7877 5.9820
v  5.5021 2.3633 5.9820
v  2.7488 8.5344 5.1499
v  -4.8310 12.9871 1.4685
v  -0.0000 14.6420 0.9824
v  -8.9026 2.1761 2.2852
v  -8.9026 -4.1847 2.2852
v  -5.5021 -8.8651 1.0608
v  0.0000 -9.7088 1.0608
v  5.5021 -8.8651 1.0608
v  8.9026 -4.1847 2.2852
v  8.9026 2.1761 2.2852
v  4.8504 12.9871 1.4685
v  -4.8310 12.9871 -1.6544
v  -0.0000 14.6420 -0.9921
v  -8.9026 2.1761 -2.5507
v  -8.9026 -4.1847 -2.5507
v  -5.5021 -8.8651 -0.9884
v  0.0000 -9.7088 -0.9884
v  5.5021 -8.8651 -0.9884
v  8.9026 -4.1847 -2.5507
v  8.9026 2.1761 -2.5507
v  4.8504 12.9871 -1.6544
v  -2.7294 8.5344 -5.0054
v  -0.0000 10.1822 -5.9097
v  -5.5021 2.3633 -5.9097
v  -5.5021 -1.7878 -5.9097
v  -3.4005 -4.6804 -5.9097
v  -0.0000 -5.4291 -5.9097
v  3.4005 -4.6804 -5.9097
v  5.5021 -1.7877 -5.9097
v  5.5021 2.3633 -5.9097
v  2.7488 8.5344 -5.0054
v  -0.0000 0.5755 -7.3751
# 42 vertices

vn -0.0000 0.0083 1.0000
vn 0.0609 0.4823 0.8739
vn -0.4849 0.2882 0.8257
vn -0.5169 0.1779 0.8374
vn -0.5014 -0.1651 0.8493
vn -0.3030 -0.4586 0.8354
vn -0.0072 -0.5437 0.8393
vn 0.2719 -0.4498 0.8507
vn 0.4969 -0.1388 0.8566
vn 0.5085 0.1554 0.8469
vn 0.4298 0.3634 0.8266
vn -0.6349 0.6798 0.3671
vn 0.0201 0.9392 0.3427
vn -0.9160 0.1817 0.3576
vn -0.8514 -0.3349 0.4036
vn -0.4716 -0.8165 0.3329
vn -0.0035 -0.9391 0.3436
vn 0.4707 -0.8221 0.3202
vn 0.8641 -0.3234 0.3857
vn 0.9209 0.1709 0.3503
vn 0.6018 0.6900 0.4023
vn -0.5882 0.6887 -0.4240
vn -0.0226 0.9395 -0.3419
vn -0.9124 0.1716 -0.3716
vn -0.8521 -0.3288 -0.4071
vn -0.4665 -0.8265 -0.3151
vn 0.0035 -0.9391 -0.3436
vn 0.4683 -0.8196 -0.3300
vn 0.8338 -0.3451 -0.4310
vn 0.9074 0.1815 -0.3791
vn 0.6276 0.6776 -0.3833
vn -0.4151 0.3578 -0.8365
vn -0.0702 0.4712 -0.8792
vn -0.4864 0.1564 -0.8596
vn -0.4754 -0.1319 -0.8698
vn -0.2610 -0.4501 -0.8540
vn 0.0072 -0.5442 -0.8389
vn 0.3032 -0.4591 -0.8351
vn 0.4814 -0.1668 -0.8605
vn 0.4954 0.1787 -0.8501
vn 0.4743 0.2744 -0.8365
vn -0.0000 0.0109 -0.9999
# 42 vertex normals

vt 0.0000 1.0000 0.0000
vt 0.0000 0.8000 0.0000
vt 0.1000 0.8000 0.0000
vt 0.1000 1.0000 0.0000
vt 0.2000 0.8000 0.0000
vt 0.2000 1.0000 0.0000
vt 0.3000 0.8000 0.0000
vt 0.3000 1.0000 0.0000
vt 0.4000 0.8000 0.0000
vt 0.4000 1.0000 0.0000
vt 0.5000 0.8000 0.0000
vt 0.5000 1.0000 0.0000
vt 0.6000 0.8000 0.0000
vt 0.6000 1.0000 0.0000
vt 0.7000 0.8000 0.0000
vt 0.7000 1.0000 0.0000
vt 0.8000 0.8000 0.0000
vt 0.8000 1.0000 0.0000
vt 0.9000 0.8000 0.0000
vt 0.9000 1.0000 0.0000
vt 1.0000 0.8000 0.0000
vt 0.1000 0.6000 0.0000
vt 0.0000 0.6000 0.0000
vt 0.2000 0.6000 0.0000
vt 0.3000 0.6000 0.0000
vt 0.4000 0.6000 0.0000
vt 0.5000 0.6000 0.0000
vt 0.6000 0.6000 0.0000
vt 0.7000 0.6000 0.0000
vt 0.8000 0.6000 0.0000
vt 0.9000 0.6000 0.0000
vt 1.0000 0.6000 0.0000
vt 0.1000 0.4000 0.0000
vt 0.0000 0.4000 0.0000
vt 0.2000 0.4000 0.0000
vt 0.3000 0.4000 0.0000
vt 0.4000 0.4000 0.0000
vt 0.5000 0.4000 0.0000
vt 0.6000 0.4000 0.0000
vt 0.7000 0.4000 0.0000
vt 0.8000 0.4000 0.0000
vt 0.9000 0.4000 0.0000
vt 1.0000 0.4000 0.0000
vt 0.1000 0.2000 0.0000
vt 0.0000 0.2000 0.0000
vt 0.2000 0.2000 0.0000
vt 0.3000 0.2000 0.0000
vt 0.4000 0.2000 0.0000
vt 0.5000 0.2000 0.0000
vt 0.6000 0.2000 0.0000
vt 0.7000 0.2000 0.0000
vt 0.8000 0.2000 0.0000
vt 0.9000 0.2000 0.0000
vt 1.0000 0.2000 0.0000
vt 0.0000 0.0000 0.0000
vt 0.1000 0.0000 0.0000
vt 0.2000 0.0000 0.0000
vt 0.3000 0.0000 0.0000
vt 0.4000 0.0000 0.0000
vt 0.5000 0.0000 0.0000
vt 0.6000 0.0000 0.0000
vt 0.7000 0.0000 0.0000
vt 0.8000 0.0000 0.0000
vt 0.9000 0.0000 0.0000
# 64 texture coords

g Sphere001
usemtl wire_004084004
s 1
f 1/1/1 2/2/2 3/3/3 
f 1/4/1 3/3/3 4/5/4 
f 1/6/1 4/5/4 5/7/5 
f 1/8/1 5/7/5 6/9/6 
f 1/10/1 6/9/6 7/11/7 
f 1/12/1 7/11/7 8/13/8 
f 1/14/1 8/13/8 9/15/9 
f 1/16/1 9/15/9 10/17/10 
f 1/18/1 10/17/10 11/19/11 
f 1/20/1 11/19/11 2/21/2 
f 12/22/12 3/3/3 2/2/2 
f 2/2/2 13/23/13 12/22/12 
f 14/24/14 4/5/4 3/3/3 
f 3/3/3 12/22/12 14/24/14 
f 15/25/15 5/7/5 4/5/4 
f 4/5/4 14/24/14 15/25/15 
f 16/26/16 6/9/6 5/7/5 
f 5/7/5 15/25/15 16/26/16 
f 17/27/17 7/11/7 6/9/6 
f 6/9/6 16/26/16 17/27/17 
f 18/28/18 8/13/8 7/11/7 
f 7/11/7 17/27/17 18/28/18 
f 19/29/19 9/15/9 8/13/8 
f 8/13/8 18/28/18 19/29/19 
f 20/30/20 10/17/10 9/15/9 
f 9/15/9 19/29/19 20/30/20 
f 21/31/21 11/19/11 10/17/10 
f 10/17/10 20/30/20 21/31/21 
f 13/32/13 2/21/2 11/19/11 
f 11/19/11 21/31/21 13/32/13 
f 22/33/22 12/22/12 13/23/13 
f 13/23/13 23/34/23 22/33/22 
f 24/35/24 14/24/14 12/22/12 
f 12/22/12 22/33/22 24/35/24 
f 25/36/25 15/25/15 14/24/14 
f 14/24/14 24/35/24 25/36/25 
f 26/37/26 16/26/16 15/25/15 
f 15/25/15 25/36/25 26/37/26 
f 27/38/27 17/27/17 16/26/16 
f 16/26/16 26/37/26 27/38/27 
f 28/39/28 18/28/18 17/27/17 
f 17/27/17 27/38/27 28/39/28 
f 29/40/29 19/29/19 18/28/18 
f 18/28/18 28/39/28 29/40/29 
f 30/41/30 20/30/20 19/29/19 
f 19/29/19 29/40/29 30/41/30 
f 31/42/31 21/31/21 20/30/20 
f 20/30/20 30/41/30 31/42/31 
f 23/43/23 13/32/13 21/31/21 
f 21/31/21 31/42/31 23/43/23 
f 32/44/32 22/33/22 23/34/23 
f 23/34/23 33/45/33 32/44/32 
f 34/46/34 24/35/24 22/33/22 
f 22/33/22 32/44/32 34/46/34 
f 35/47/35 25/36/25 24/35/24 
f 24/35/24 34/46/34 35/47/35 
f 36/48/36 26/37/26 25/36/25 
f 25/36/25 35/47/35 36/48/36 
f 37/49/37 27/38/27 26/37/26 
f 26/37/26 36/48/36 37/49/37 
f 38/50/38 28/39/28 27/38/27 
f 27/38/27 37/49/37 38/50/38 
f 39/51/39 29/40/29 28/39/28 
f 28/39/28 38/50/38 39/51/39 
f 40/52/40 30/41/30 29/40/29 
f 29/40/29 39/51/39 40/52/40 
f 41/53/41 31/42/31 30/41/30 
f 30/41/30 40/52/40 41/53/41 
f 33/54/33 23/43/23 31/42/31 
f 31/42/31 41/53/41 33/54/33 
f 42/55/42 32/44/32 33/45/33 
f 42/56/42 34/46/34 32/44/32 
f 42/57/42 35/47/35 34/46/34 
f 42/58/42 36/48/36 35/47/35 
f 42/59/42 37/49/37 36/48/36 
f 42/60/42 38/50/38 37/49/37 
f 42/61/42 39/51/39 38/50/38 
f 42/62/42 40/52/40 39/51/39 
f 42/63/42 41/53/41 40/52/40 
f 42/64/42 33/54/33 41/53/41 
# 80 faces

