# 3ds Max Wavefront OBJ Exporter v0.97b - (c)2007 guruware
# File Created: 17.11.2014 18:47:49

mtllib olive.mtl

#
# object GeoSphere001
#

v  0.0000 -0.6826 -0.0000
v  6.2850 12.4030 0.0000
v  -0.0000 12.4030 -6.1489
v  11.2294 0.0000 -0.0000
v  6.9979 -0.0000 -6.7744
v  -0.0000 -0.0000 -11.0060
v  -6.5843 12.4030 0.0000
v  -7.0988 -0.0000 -6.7744
v  -11.3304 0.0000 -0.0000
v  0.0000 12.4030 6.1711
v  -7.0988 0.0000 6.8409
v  0.0000 0.0000 11.0725
v  6.9979 0.0000 6.8409
v  0.0000 -14.4475 -0.0000
v  -0.0000 -10.2159 -6.7760
v  6.9100 -10.2159 -0.0000
v  -7.0326 -10.2159 -0.0000
v  0.0000 -10.2159 7.0745
# 18 vertices

vn -0.0065 1.0000 0.0005
vn 0.3833 0.9236 -0.0016
vn 0.0043 0.9272 -0.3746
vn 1.0000 -0.0092 -0.0020
vn 0.7025 -0.0138 -0.7116
vn 0.0028 -0.0087 -1.0000
vn -0.3989 0.9170 -0.0017
vn -0.6984 -0.0163 -0.7155
vn -0.9999 -0.0146 -0.0020
vn 0.0044 0.9274 0.3740
vn -0.7017 -0.0122 0.7123
vn 0.0028 0.0015 1.0000
vn 0.7057 -0.0097 0.7084
vn 0.0034 -1.0000 -0.0083
vn 0.0036 -0.6346 -0.7728
vn 0.7693 -0.6389 -0.0067
vn -0.7670 -0.6416 -0.0067
vn 0.0036 -0.6351 0.7725
# 18 vertex normals

vt 0.6250 1.0000 14.4475
vt 0.5000 0.7500 14.4475
vt 0.7500 0.7500 14.4475
vt 0.5000 0.5000 14.4475
vt 0.6250 0.5000 14.4475
vt 0.7500 0.5000 14.4475
vt 0.8750 1.0000 14.4475
vt 1.0000 0.7500 14.4475
vt 0.8750 0.5000 14.4475
vt 1.0000 0.5000 14.4475
vt 0.1250 1.0000 14.4475
vt 0.0000 0.7500 14.4475
vt 0.2500 0.7500 14.4475
vt 0.0000 0.5000 14.4475
vt 0.1250 0.5000 14.4475
vt 0.2500 0.5000 14.4475
vt 0.3750 1.0000 14.4475
vt 0.3750 0.5000 14.4475
vt 0.6250 0.0000 14.4475
vt 0.7500 0.2500 14.4475
vt 0.5000 0.2500 14.4475
vt 0.8750 0.0000 14.4475
vt 1.0000 0.2500 14.4475
vt 0.1250 0.0000 14.4475
vt 0.2500 0.2500 14.4475
vt 0.0000 0.2500 14.4475
vt 0.3750 0.0000 14.4475
# 27 texture coords

g GeoSphere001
usemtl wire_006135006
s 1
f 1/1/1 2/2/2 3/3/3 
f 2/2/2 4/4/4 5/5/5 
f 2/2/2 5/5/5 3/3/3 
f 3/3/3 5/5/5 6/6/6 
f 1/7/1 3/3/3 7/8/7 
f 3/3/3 6/6/6 8/9/8 
f 3/3/3 8/9/8 7/8/7 
f 7/8/7 8/9/8 9/10/9 
f 1/11/1 7/12/7 10/13/10 
f 7/12/7 9/14/9 11/15/11 
f 7/12/7 11/15/11 10/13/10 
f 10/13/10 11/15/11 12/16/12 
f 1/17/1 10/13/10 2/2/2 
f 10/13/10 12/16/12 13/18/13 
f 10/13/10 13/18/13 2/2/2 
f 2/2/2 13/18/13 4/4/4 
f 14/19/14 15/20/15 16/21/16 
f 15/20/15 6/6/6 5/5/5 
f 15/20/15 5/5/5 16/21/16 
f 16/21/16 5/5/5 4/4/4 
f 14/22/14 17/23/17 15/20/15 
f 17/23/17 9/10/9 8/9/8 
f 17/23/17 8/9/8 15/20/15 
f 15/20/15 8/9/8 6/6/6 
f 14/24/14 18/25/18 17/26/17 
f 18/25/18 12/16/12 11/15/11 
f 18/25/18 11/15/11 17/26/17 
f 17/26/17 11/15/11 9/14/9 
f 14/27/14 16/21/16 18/25/18 
f 16/21/16 4/4/4 13/18/13 
f 16/21/16 13/18/13 18/25/18 
f 18/25/18 13/18/13 12/16/12 
# 32 faces

#
# object Box001
#

v  -5.3533 4.2059 -0.2034
v  -0.0245 4.2059 -5.3571
v  5.3533 4.2059 0.2034
v  0.0245 4.2059 5.3571
v  -5.3533 13.0724 -0.2034
v  0.0245 13.0724 5.3571
v  5.3533 13.0724 0.2034
v  -0.0245 13.0724 -5.3571
# 8 vertices

vn 0.0000 -1.0000 -0.0000
vn 0.0000 1.0000 -0.0000
vn -0.7188 -0.0000 0.6952
vn -0.7188 0.0000 0.6952
vn 0.6952 -0.0000 0.7188
vn 0.6952 0.0000 0.7188
vn 0.7188 0.0000 -0.6952
vn -0.6952 -0.0000 -0.7188
vn -0.6952 0.0000 -0.7188
# 9 vertex normals

vt 1.0000 0.0000 0.0000
vt 1.0000 1.0000 0.0000
vt 0.0000 1.0000 0.0000
vt 0.0000 0.0000 0.0000
# 4 texture coords

g Box001
usemtl wire_177088027
s 2
f 19/28/19 20/29/19 21/30/19 
f 21/30/19 22/31/19 19/28/19 
s 4
f 23/31/20 24/28/20 25/29/20 
f 25/29/20 26/30/20 23/31/20 
s 8
f 19/31/21 22/28/21 24/29/22 
f 24/29/22 23/30/22 19/31/21 
s 16
f 22/31/23 21/28/23 25/29/23 
f 25/29/23 24/30/24 22/31/23 
s 32
f 21/31/25 20/28/25 26/29/25 
f 26/29/25 25/30/25 21/31/25 
s 64
f 20/31/26 19/28/26 23/29/26 
f 23/29/26 26/30/27 20/31/26 
# 12 faces

